<svg width="300" height="300" viewBox="0 0 300 300" fill="none" xmlns="http://www.w3.org/2000/svg">
<path d="M0 0H300V300H0V0Z" fill="#FCF9EB"/>
<g clip-path="url(#clip0_106_3)">
<path d="M188.99 235.24L118.831 235.638V249.815C118.831 257.664 112.517 264 104.648 264C96.7916 264 90.376 257.654 90.376 249.823V235.648L19.728 235.643C7.05677 235.643 0.303196 220.359 8.75072 210.65L39.4197 175.38H32.6749C21.3775 175.38 15.2686 162.174 22.5957 153.608L49.4544 122.211H44.675C35.2137 122.211 30.0607 112.24 36.1029 105.677L96.0358 40.7559C100.66 35.7483 108.583 35.7483 113.206 40.7544L173.183 105.675C179.239 112.238 174.073 122.209 164.612 122.209H159.824L186.655 153.611C193.973 162.181 187.864 175.378 176.571 175.378H169.813L200.483 210.648C208.952 220.439 202.016 235.24 188.99 235.24Z" fill="#2E5F37"/>
<path d="M104.599 145.601C104.599 132.524 115.199 121.921 128.274 121.921H227.71C253.871 121.921 275.06 143.114 275.06 169.281V216.64H284.53C289.768 216.64 294 220.873 294 226.112C294 231.351 289.768 235.584 284.53 235.584H189.829C189.829 251.272 177.104 264 161.419 264C145.468 264 133.009 251.272 133.009 235.584H128.274C115.199 235.584 104.599 224.987 104.599 211.904V145.601ZM199.299 216.64H237.18V188.224H227.71C225.105 188.224 222.975 186.093 222.975 183.488C222.975 180.884 225.105 178.753 227.71 178.753H237.18V159.809C237.18 154.57 232.948 150.337 227.71 150.337H208.769C203.532 150.337 199.299 154.57 199.299 159.809V216.64ZM133.009 150.337C127.78 150.337 123.539 154.57 123.539 159.809V178.753C123.539 183.992 127.78 188.224 133.009 188.224H170.889C176.127 188.224 180.359 183.992 180.359 178.753V159.809C180.359 154.57 176.127 150.337 170.889 150.337H133.009ZM161.419 249.792C169.261 249.792 175.624 243.428 175.624 235.584C175.624 227.74 169.261 221.376 161.419 221.376C153.577 221.376 147.214 227.74 147.214 235.584C147.214 243.428 153.577 249.792 161.419 249.792Z" fill="#333333"/>
<path d="M199.299 216.64H237.18V188.224H227.71C225.105 188.224 222.975 186.093 222.975 183.488C222.975 180.884 225.105 178.753 227.71 178.753H237.18V159.809C237.18 154.57 232.948 150.337 227.71 150.337H208.77C203.532 150.337 199.299 154.57 199.299 159.809V216.64Z" fill="#D0D0D0"/>
<path d="M161.419 249.792C169.261 249.792 175.624 243.428 175.624 235.584C175.624 227.74 169.261 221.376 161.419 221.376C153.577 221.376 147.214 227.74 147.214 235.584C147.214 243.428 153.577 249.792 161.419 249.792Z" fill="#D0D0D0"/>
<path d="M133.009 150.337C127.78 150.337 123.539 154.57 123.539 159.809V178.753C123.539 183.992 127.78 188.224 133.009 188.224H170.889C176.127 188.224 180.359 183.992 180.359 178.753V159.809C180.359 154.57 176.127 150.337 170.889 150.337H133.009Z" fill="#D0D0D0"/>
</g>
<defs>
<clipPath id="clip0_106_3">
<rect width="289" height="227" fill="white" transform="translate(5 37)"/>
</clipPath>
</defs>
</svg>
