<svg width="138" height="174" viewBox="0 0 138 174" fill="none" xmlns="http://www.w3.org/2000/svg">
<path d="M38.4049 8.90504C33.9204 14.095 34.3235 21.8043 39.2615 26.0369C41.277 27.7501 43.6956 28.657 46.1646 28.8082C46.8197 30.2695 47.8274 31.5795 49.0871 32.6881C54.0251 36.971 61.684 36.2152 66.1686 31.0253C68.2848 28.5563 69.343 25.4826 69.2926 22.5097C70.4011 21.8043 71.4593 20.9477 72.4166 19.8896C76.9012 14.6996 76.4981 6.99031 71.56 2.75773C66.622 -1.47484 58.9631 -0.769411 54.4786 4.42053C54.0755 4.87402 53.7732 5.32751 53.4205 5.781C48.5832 3.21122 42.2848 4.37014 38.4049 8.90504Z" fill="#E2BA13"/>
<path d="M78.0601 3.11045C72.6182 3.46316 68.4864 7.94767 68.7887 13.1376C68.9399 15.2035 69.7461 17.1182 71.0562 18.5795C70.6027 19.7888 70.4012 21.0485 70.4515 22.409C70.7539 27.5989 75.4399 31.5291 80.8818 31.1764C83.502 31.0253 85.7694 29.9167 87.4322 28.2539C88.44 28.5059 89.5485 28.6067 90.657 28.5563C96.0989 28.2036 100.231 23.719 99.9284 18.5291C99.6261 13.3392 94.94 9.40892 89.4981 9.76163C89.0446 9.81202 88.5911 9.86241 88.1377 9.96318C86.9283 5.73061 82.7966 2.80812 78.0601 3.11045Z" fill="#EDC92F"/>
<path d="M31.5018 34.9051C31.5018 29.4632 27.2693 25.0291 22.0793 25.0291C19.963 25.0291 18.0483 25.7346 16.4863 26.9439C15.3274 26.3896 14.0677 26.1377 12.7072 26.1377C7.51725 26.1377 3.28468 30.5718 3.28468 36.0137C3.28468 38.6338 4.24205 41.002 5.80407 42.7656C5.50174 43.7734 5.30019 44.8315 5.30019 45.94C5.30019 51.3819 9.53276 55.816 14.7227 55.816C19.9126 55.816 24.1452 51.3819 24.1452 45.94C24.1452 45.4866 24.0948 45.0331 24.0444 44.5796C28.3274 43.5718 31.5018 39.6416 31.5018 34.9051Z" fill="#EFD35B"/>
<path d="M42.0832 40.0951C47.5251 39.7927 51.7073 35.3082 51.4049 30.1183C51.3042 28.002 50.4476 26.1377 49.1375 24.626C49.591 23.4167 49.8429 22.157 49.7421 20.7965C49.4398 15.6066 44.8042 11.6764 39.3623 11.9787C36.7421 12.1299 34.4747 13.2384 32.8119 14.9012C31.8041 14.6492 30.6956 14.4981 29.587 14.5989C24.1452 14.9012 19.963 19.3857 20.2653 24.5756C20.5676 29.7656 25.2033 33.6958 30.6452 33.3935C31.0987 33.3431 31.5522 33.2927 32.0057 33.2423C33.215 37.3741 37.3468 40.347 42.0832 40.0951Z" fill="#F9E595"/>
<path d="M124.719 51.0796C130.161 50.7773 134.343 46.2928 134.041 41.1028C133.94 38.9865 133.084 37.1222 131.773 35.6106C132.227 34.4012 132.479 33.1416 132.378 31.7811C132.076 26.5911 127.44 22.6609 121.998 22.9632C119.378 23.1144 117.111 24.2229 115.448 25.8857C114.44 25.6338 113.332 25.4826 112.223 25.5834C106.781 25.8857 102.599 30.3702 102.901 35.5602C103.204 40.7501 107.839 44.6803 113.281 44.378C113.735 44.3276 114.188 44.2773 114.642 44.2269C115.851 48.409 119.983 51.3819 124.719 51.0796Z" fill="#EFD35B"/>
<path d="M46.3662 49.2656C51.8081 48.9633 55.9902 44.4788 55.6879 39.2889C55.5871 37.1726 54.7306 35.3082 53.4205 33.7966C53.874 32.5873 54.1259 31.3276 54.0251 29.9671C53.7228 24.7772 49.0871 20.8469 43.6452 21.1493C41.0251 21.3004 38.7576 22.409 37.0948 24.0718C36.0871 23.8198 34.9785 23.6687 33.87 23.7694C28.4281 24.0718 24.246 28.5563 24.5483 33.7462C24.8506 38.9361 29.4863 42.8664 34.9282 42.5641C35.3817 42.5137 35.8351 42.4633 36.2886 42.4129C37.4979 46.5951 41.6297 49.5176 46.3662 49.2656Z" fill="#EFD35B"/>
<path d="M68.9903 38.2307C74.4322 37.9284 78.6144 33.4439 78.312 28.2539C78.2113 26.188 77.3547 24.2733 76.0446 22.7617C76.4981 21.5524 76.75 20.2927 76.6492 18.9322C76.3469 13.7423 71.7112 9.81202 66.2694 10.1143C63.6492 10.2655 61.3817 11.374 59.7189 13.0368C58.7112 12.7849 57.6027 12.6337 56.4941 12.7345C51.0523 13.0368 46.8701 17.5213 47.1724 22.7113C47.4747 27.9012 52.1104 31.8315 57.5523 31.5291C58.0058 31.4788 58.4593 31.4284 58.9127 31.378C60.1221 35.5602 64.2538 38.533 68.9903 38.2307Z" fill="#EFD35B"/>
<path d="M116.758 32.6881C119.832 28.2035 118.874 22.157 114.642 19.2345C112.928 18.0252 110.913 17.5213 108.948 17.6725C108.293 16.564 107.436 15.6066 106.328 14.8508C102.045 11.8779 96.0485 13.1376 92.9749 17.6221C91.5136 19.7384 90.9593 22.2578 91.2617 24.5756C90.4051 25.2307 89.6493 25.9865 89.0446 26.8935C85.9709 31.378 86.9283 37.4245 91.2113 40.347C95.4942 43.3199 101.49 42.0602 104.564 37.5757C104.816 37.1726 105.068 36.8199 105.269 36.4168C109.2 38.0292 114.087 36.6183 116.758 32.6881Z" fill="#EFD35B"/>
<path d="M73.5756 34.9051C74.2306 29.5136 70.5523 24.626 65.4128 23.971C63.3469 23.719 61.3314 24.2229 59.6182 25.2307C58.5096 24.5756 57.3003 24.1221 55.9903 23.971C50.8507 23.3663 46.1142 27.2462 45.4592 32.6377C45.1569 35.2075 45.8119 37.6765 47.1724 39.6416C46.7189 40.5989 46.4166 41.6571 46.2654 42.7656C45.6104 48.1571 49.2887 53.0447 54.4282 53.6998C59.5678 54.3044 64.3042 50.4246 64.9593 45.0331C65.0097 44.5796 65.0601 44.1261 65.0097 43.6726C69.343 43.1687 73.0213 39.6416 73.5756 34.9051Z" fill="#EFD35B"/>
<path d="M59.9205 42.816C59.2655 48.9633 63.498 54.4052 69.343 55.0602C71.7112 55.3122 73.9787 54.7579 75.843 53.5486C77.1027 54.3044 78.4632 54.7579 79.9748 54.9595C85.8198 55.5641 91.0601 51.13 91.7152 44.9827C92.0175 42.0602 91.2113 39.2889 89.6997 37.1222C90.2035 36.0137 90.5059 34.8547 90.657 33.595C91.3121 27.4477 87.0795 22.0059 81.2849 21.3508C75.4399 20.7462 70.1996 25.1803 69.5446 31.3276C69.4942 31.8315 69.4942 32.3857 69.4942 32.8896C64.5562 33.3935 60.4748 37.4749 59.9205 42.816Z" fill="#F9E595"/>
<path d="M109.855 43.0176C113.029 38.5834 112.122 32.5369 107.89 29.5136C106.177 28.3043 104.211 27.7501 102.196 27.8508C101.541 26.7423 100.684 25.7849 99.5757 24.9787C95.3431 21.9555 89.347 23.1648 86.1726 27.5989C84.6609 29.7152 84.1067 32.1842 84.3586 34.5524C83.502 35.1571 82.7462 35.9633 82.0912 36.8702C78.9671 41.3044 79.8237 47.3509 84.0563 50.3742C88.2889 53.3974 94.285 52.1881 97.4594 47.754C97.7114 47.3509 97.9633 46.9982 98.1649 46.5951C102.196 48.2579 107.083 46.847 109.855 43.0176Z" fill="#EFD35B"/>
<path d="M136.56 34.0485C136.208 33.6958 135.704 33.5447 135.2 33.6454L127.541 30.2694L119.025 37.0718L109.401 34.0989L101.944 40.6997L93.2772 37.5253L85.5175 44.1765L77.4554 40.9013L68.4864 47.8044L58.7616 40.7501L51.5057 44.2269L42.4359 37.2734L34.7266 40.6493L26.2615 33.847L18.0483 37.1222L9.93584 30.3702L1.82341 33.6454C1.31953 33.5447 0.815653 33.6958 0.462938 34.0485C0.110224 34.4012 -0.0409401 34.9051 0.00944767 35.409L20.4669 158.204C20.5677 158.758 20.9708 159.212 21.525 159.413L68.0833 173.623C68.0833 173.623 68.0833 173.623 68.1337 173.623H68.1841C68.2345 173.623 68.2849 173.673 68.3353 173.673C68.3856 173.673 68.436 173.673 68.4864 173.673H68.5368H68.5872C68.6376 173.673 68.688 173.673 68.7384 173.673C68.7888 173.673 68.8391 173.673 68.8895 173.623H68.9399C68.9399 173.623 68.9399 173.623 68.9903 173.623L115.549 159.413C116.103 159.262 116.506 158.758 116.607 158.204L137.014 35.3586C137.064 34.9051 136.913 34.4012 136.56 34.0485Z" fill="#E5DDD7"/>
<path d="M5.19937 35.9129L24.4979 158.708L31.9049 160.975L15.8312 38.1803L10.3893 32.7888L5.19937 35.9129Z" fill="#EA4949"/>
<path d="M21.4746 39.3896L35.8351 162.185L43.1917 164.402L32.1064 41.6571L27.0676 36.316L21.4746 39.3896Z" fill="#EA4949"/>
<path d="M37.7499 42.816L47.122 165.611L54.529 167.878L48.3817 45.0835L42.3855 39.5912L37.7499 42.816Z" fill="#EA4949"/>
<path d="M54.0251 46.2928L58.4592 169.088L65.8159 171.305L64.6569 48.5602L59.0135 43.1183L54.0251 46.2928Z" fill="#EA4949"/>
<path d="M72.8198 48.4594L71.5097 171.204L78.9167 168.937L83.4516 46.192L77.4555 43.2191L72.8198 48.4594Z" fill="#BF1717"/>
<path d="M89.095 44.9827L82.7965 167.778L90.2035 165.51L99.7268 42.7152L93.8818 39.7423L89.095 44.9827Z" fill="#BF1717"/>
<path d="M105.37 41.5059L94.1338 164.301L101.541 162.033L116.002 39.2889L110.207 36.2656L105.37 41.5059Z" fill="#BF1717"/>
<path d="M121.646 38.0796L105.421 160.875L112.828 158.607L132.277 35.8121L126.281 32.8392L121.646 38.0796Z" fill="#BF1717"/>
</svg>
