<svg width="300" height="300" viewBox="0 0 300 300" fill="none" xmlns="http://www.w3.org/2000/svg">
<mask id="path-1-inside-1_1_6" fill="white">
<path d="M0 20C0 8.9543 8.95431 0 20 0H280C291.046 0 300 8.95431 300 20V280C300 291.046 291.046 300 280 300H20C8.9543 300 0 291.046 0 280V20Z"/>
</mask>
<path d="M0 20C0 8.9543 8.95431 0 20 0H280C291.046 0 300 8.95431 300 20V280C300 291.046 291.046 300 280 300H20C8.9543 300 0 291.046 0 280V20Z" fill="#FCF9EB"/>
<path d="M0 0H300H0ZM300 280C300 310.376 275.376 335 245 335H55C24.6243 335 0 310.376 0 280V265C0 265 8.9543 265 20 265H280C291.046 265 300 265 300 265V280ZM0 300V0V300ZM300 0V300V0Z" fill="#2A5302" mask="url(#path-1-inside-1_1_6)"/>
<g clip-path="url(#clip0_1_6)">
<path d="M181.701 217.941L125.38 218.26V229.627C125.38 235.92 120.312 241 113.994 241C107.687 241 102.537 235.912 102.537 229.634V218.268L45.8232 218.264C35.6511 218.264 30.2296 206.01 37.011 198.226L61.6311 169.947H56.2166C47.1473 169.947 42.2433 159.36 48.1253 152.492L69.6866 127.319H65.8498C58.2546 127.319 54.1179 119.324 58.9684 114.063L107.081 62.0113C110.793 57.9964 117.153 57.9964 120.865 62.0101L169.012 114.061C173.874 119.323 169.727 127.318 162.131 127.318H158.287L179.827 152.494C185.702 159.365 180.797 169.946 171.732 169.946H166.307L190.928 198.225C197.726 206.074 192.158 217.941 181.701 217.941Z" fill="#2E5F37"/>
<path d="M113.955 146.072C113.955 135.587 122.465 127.086 132.96 127.086H212.784C233.786 127.086 250.795 144.078 250.795 165.058V203.029H258.398C262.603 203.029 266 206.423 266 210.623C266 214.823 262.603 218.217 258.398 218.217H182.375C182.375 230.795 172.159 241 159.568 241C146.763 241 136.762 230.795 136.762 218.217H132.96C122.465 218.217 113.955 209.721 113.955 199.232V146.072ZM189.977 203.029H220.386V180.246H212.784C210.694 180.246 208.983 178.537 208.983 176.449C208.983 174.361 210.694 172.652 212.784 172.652H220.386V157.463C220.386 153.263 216.989 149.869 212.784 149.869H197.58C193.375 149.869 189.977 153.263 189.977 157.463V203.029ZM136.762 149.869C132.564 149.869 129.159 153.263 129.159 157.463V172.652C129.159 176.852 132.564 180.246 136.762 180.246H167.171C171.375 180.246 174.773 176.852 174.773 172.652V157.463C174.773 153.263 171.375 149.869 167.171 149.869H136.762ZM159.568 229.609C165.864 229.609 170.972 224.506 170.972 218.217C170.972 211.928 165.864 206.826 159.568 206.826C153.273 206.826 148.165 211.928 148.165 218.217C148.165 224.506 153.273 229.609 159.568 229.609Z" fill="#333333"/>
<path d="M189.977 203.029H220.386V180.246H212.784C210.694 180.246 208.983 178.537 208.983 176.449C208.983 174.361 210.694 172.652 212.784 172.652H220.386V157.463C220.386 153.263 216.989 149.869 212.784 149.869H197.58C193.375 149.869 189.977 153.263 189.977 157.463V203.029Z" fill="#D0D0D0"/>
<path d="M159.568 229.609C165.864 229.609 170.972 224.506 170.972 218.217C170.972 211.928 165.864 206.826 159.568 206.826C153.273 206.826 148.165 211.928 148.165 218.217C148.165 224.506 153.273 229.609 159.568 229.609Z" fill="#D0D0D0"/>
<path d="M136.762 149.869C132.564 149.869 129.159 153.263 129.159 157.463V172.652C129.159 176.852 132.564 180.246 136.762 180.246H167.171C171.375 180.246 174.773 176.852 174.773 172.652V157.463C174.773 153.263 171.375 149.869 167.171 149.869H136.762Z" fill="#D0D0D0"/>
</g>
<defs>
<clipPath id="clip0_1_6">
<rect width="232" height="182" fill="white" transform="translate(34 59)"/>
</clipPath>
</defs>
</svg>
