<svg width="300" height="300" viewBox="0 0 300 300" fill="none" xmlns="http://www.w3.org/2000/svg">
<mask id="path-1-inside-1_1_6" fill="white">
<path d="M0 20C0 8.9543 8.95431 0 20 0H280C291.046 0 300 8.95431 300 20V280C300 291.046 291.046 300 280 300H20C8.9543 300 0 291.046 0 280V20Z"/>
</mask>
<path d="M0 20C0 8.9543 8.95431 0 20 0H280C291.046 0 300 8.95431 300 20V280C300 291.046 291.046 300 280 300H20C8.9543 300 0 291.046 0 280V20Z" fill="#FCF9EB"/>
<path d="M0 0H300H0ZM300 280C300 310.376 275.376 335 245 335H55C24.6243 335 0 310.376 0 280V265C0 265 8.95431 265 20 265H280C291.046 265 300 265 300 265V280ZM0 300V0V300ZM300 0V300V0Z" fill="#2A5302" mask="url(#path-1-inside-1_1_6)"/>
<path d="M83.32 100.08H44.26V79.56H145.06V100.08H106V207H83.32V100.08ZM160.579 79.56H203.419C209.539 79.56 215.419 80.16 221.059 81.36C226.819 82.56 231.859 84.6 236.179 87.48C240.499 90.24 243.919 94.02 246.439 98.82C249.079 103.5 250.399 109.38 250.399 116.46C250.399 124.5 249.019 130.98 246.259 135.9C243.499 140.82 239.779 144.66 235.099 147.42C230.419 150.06 224.959 151.86 218.719 152.82C212.599 153.78 206.179 154.26 199.459 154.26H183.259V207H160.579V79.56ZM196.939 134.82C200.179 134.82 203.539 134.7 207.019 134.46C210.499 134.22 213.679 133.5 216.559 132.3C219.559 131.1 221.959 129.3 223.759 126.9C225.679 124.5 226.639 121.14 226.639 116.82C226.639 112.86 225.799 109.74 224.119 107.46C222.439 105.06 220.279 103.26 217.639 102.06C214.999 100.74 212.059 99.9 208.819 99.54C205.579 99.18 202.459 99 199.459 99H183.259V134.82H196.939Z" fill="#1C1C1C"/>
</svg>
